<?xml version="1.0" encoding="UTF-8" standalone="no"?>
<svg width="20px" height="20px" viewBox="0 0 20 20" version="1.1" xmlns="http://www.w3.org/2000/svg" xmlns:xlink="http://www.w3.org/1999/xlink">
    <!-- Generator: Sketch 39.1 (31720) - http://www.bohemiancoding.com/sketch -->
    <title>Fill 1</title>
    <desc>Created with Sketch.</desc>
    <defs></defs>
    <g id="Document-Icons" stroke="none" stroke-width="1" fill="none" fill-rule="evenodd">
        <g id="Powerpoint" fill="#D24625">
            <path d="M0,20 L20,20 L20,0 L0,0 L0,20 Z M1,19 L19,19 L19,1 L1,1 L1,19 Z" id="Fill-1"></path>
            <path d="M8.1912,6.84 L10.4562,6.84 C11.2062,6.84 11.7602,7.329 11.7602,8.079 C11.7602,8.812 11.2062,9.285 10.4562,9.285 L8.1912,9.285 L8.1912,6.84 Z M8.1912,11.664 L10.8312,11.664 C13.2752,11.664 14.6122,10.05 14.6122,8.095 C14.6122,6.123 13.2752,4.477 10.8312,4.477 L5.3882,4.477 L5.3882,15.347 L8.1912,15.347 L8.1912,11.664 Z" id="Fill-2"></path>
        </g>
    </g>
</svg>