<?xml version="1.0" encoding="UTF-8" standalone="no"?>
<svg width="20px" height="20px" viewBox="0 0 20 20" version="1.1" xmlns="http://www.w3.org/2000/svg" xmlns:xlink="http://www.w3.org/1999/xlink">
    <!-- Generator: Sketch 39.1 (31720) - http://www.bohemiancoding.com/sketch -->
    <title>Fill 1</title>
    <desc>Created with Sketch.</desc>
    <defs></defs>
    <g id="Document-Icons" stroke="none" stroke-width="1" fill="none" fill-rule="evenodd">
        <g id="Image-white" fill="#FFFFFF">
            <path d="M19,16.5547 L14.933,11.2347 L11.808,14.9847 L6.516,8.1097 C6.516,8.1097 2.096,12.0157 1,12.9547 L1,0.9997 L19,0.9997 L19,16.5547 Z M0,-0.0003 L0,19.9997 L0.766,19.9997 L19.349,19.9997 L20,19.9997 L20,-0.0003 L0,-0.0003 Z" id="Fill-1"></path>
            <path d="M13.5779,8.5049 C14.9839,8.5049 16.1249,7.3649 16.1249,5.9579 C16.1249,4.5519 14.9839,3.4119 13.5779,3.4119 C12.1719,3.4119 11.0309,4.5519 11.0309,5.9579 C11.0309,7.3649 12.1719,8.5049 13.5779,8.5049" id="Fill-4"></path>
        </g>
    </g>
</svg>