<?xml version="1.0" encoding="UTF-8" standalone="no"?>
<svg width="20px" height="20px" viewBox="0 0 20 20" version="1.1" xmlns="http://www.w3.org/2000/svg" xmlns:xlink="http://www.w3.org/1999/xlink">
    <!-- Generator: Sketch 39.1 (31720) - http://www.bohemiancoding.com/sketch -->
    <title>Rectangle</title>
    <desc>Created with Sketch.</desc>
    <defs>
        <rect id="path-1" x="0" y="0" width="20" height="20"></rect>
        <mask id="mask-2" maskContentUnits="userSpaceOnUse" maskUnits="objectBoundingBox" x="0" y="0" width="20" height="20" fill="white">
            <use xlink:href="#path-1"></use>
        </mask>
    </defs>
    <g id="Document-Icons" stroke="none" stroke-width="1" fill="none" fill-rule="evenodd">
        <g id="Acrobat-Copy">
            <use id="Rectangle" stroke="#616161" mask="url(#mask-2)" stroke-width="2" xlink:href="#path-1"></use>
            <rect id="Rectangle-2-Copy" fill="#616161" x="10" y="1" width="3" height="2"></rect>
            <rect id="Rectangle-2-Copy-2" fill="#616161" x="7" y="3" width="3" height="2"></rect>
            <rect id="Rectangle-2-Copy-3" fill="#616161" x="10" y="5" width="3" height="2"></rect>
            <rect id="Rectangle-2-Copy-4" fill="#616161" x="7" y="7" width="3" height="2"></rect>
            <rect id="Rectangle-2-Copy-5" fill="#616161" x="10" y="9" width="3" height="2"></rect>
            <path d="M7,11 L13,11 L13,17 L7,17 L7,11 Z M10,16 C11.1045695,16 12,15.1045695 12,14 C12,12.8954305 11.1045695,12 10,12 C8.8954305,12 8,12.8954305 8,14 C8,15.1045695 8.8954305,16 10,16 Z" id="Combined-Shape" fill="#616161"></path>
        </g>
    </g>
</svg>