<?xml version="1.0" encoding="UTF-8" standalone="no"?>
<svg width="20px" height="20px" viewBox="0 0 20 20" version="1.1" xmlns="http://www.w3.org/2000/svg" xmlns:xlink="http://www.w3.org/1999/xlink">
    <!-- Generator: Sketch 39.1 (31720) - http://www.bohemiancoding.com/sketch -->
    <title>Acrobat</title>
    <desc>Created with Sketch.</desc>
    <defs></defs>
    <g id="Document-Icons" stroke="none" stroke-width="1" fill="none" fill-rule="evenodd">
        <g id="Acrobat-white" fill="#FFFFFF">
            <path d="M1.01103718,20.0000281 C0.615037178,20.0000281 0.328037178,19.8360281 0.153037178,19.5110281 C-0.00996282194,19.1930281 -0.0429628219,18.7730281 0.0550371781,18.3180281 C0.171037178,17.7840281 0.458037178,17.2960281 0.961037178,16.7820281 C1.58103718,16.1440281 2.52003718,15.4890281 3.60203718,14.9390281 C4.14603718,14.6630281 4.79303718,14.3800281 5.49203718,14.1090281 C6.29703718,12.8010281 7.45403718,10.7290281 8.28203718,8.45102811 C8.38303718,8.17602811 8.47803718,7.89802811 8.56703718,7.62102811 C8.30403718,6.99602811 8.14303718,6.45902811 8.01903718,5.99602811 C7.80003718,5.17902811 7.65903718,4.44802811 7.60103718,3.82502811 C7.54503718,3.22202811 7.55503718,2.61502811 7.63303718,2.02102811 C7.70703718,1.44002811 7.82503718,1.04802811 8.01603718,0.753028114 C8.19603718,0.476028114 8.46303718,0.261028114 8.79003718,0.132028114 C8.97803718,0.0570281138 9.11503718,0.0420281138 9.20603718,0.0320281138 C9.36803718,0.00402811384 9.56003718,-0.0299718862 9.80503718,0.0480281138 C9.96503718,0.101028114 10.1180372,0.187028114 10.2920372,0.295028114 L10.2960372,0.288028114 C11.0320372,0.644028114 10.9680372,1.23502811 10.8610372,2.21402811 L10.8190372,2.60902811 C10.6950372,3.81502811 10.3610372,5.64602811 9.77603718,7.55402811 C9.82803718,7.66702811 9.88503718,7.78302811 9.94503718,7.90102811 C10.3870372,8.77302811 11.0250372,9.77102811 11.7900372,10.7860281 C12.1600372,11.2730281 12.5840372,11.7960281 13.0190372,12.3040281 C13.7080372,12.2530281 14.3900372,12.2550281 15.0540372,12.3140281 C15.7250372,12.3710281 16.4090372,12.4860281 17.0300372,12.6450281 C17.7110372,12.8150281 18.2130372,13.0180281 18.6540372,13.3070281 C19.1890372,13.6560281 19.6020372,14.1210281 19.8160372,14.6160281 C20.0520372,15.1700281 20.0620372,15.7910281 19.8410372,16.2780281 C19.6460372,16.7200281 19.2550372,17.0490281 18.7150372,17.2270281 C18.2200372,17.3950281 17.7140372,17.3970281 17.1810372,17.2280281 C16.6860372,17.0750281 16.1210372,16.7610281 15.4560372,16.2690281 C14.8140372,15.7970281 14.1960372,15.2440281 13.4550372,14.4730281 C13.1600372,14.1670281 12.8540372,13.8330281 12.5480372,13.4870281 C12.0670372,13.5430281 11.5230372,13.6300281 10.8200372,13.7640281 C10.0030372,13.9180281 9.08103718,14.1110281 7.88403718,14.4790281 C7.32903718,14.6490281 6.77703718,14.8360281 6.25103718,15.0320281 C6.17703718,15.1500281 6.10603718,15.2600281 6.04103718,15.3620281 C5.01703718,16.9450281 4.01803718,18.1890281 3.15203718,18.9620281 C2.50703718,19.5340281 1.90703718,19.8650281 1.31803718,19.9710281 C1.21003718,19.9910281 1.10703718,20.0000281 1.01103718,20.0000281 L1.01103718,20.0000281 L1.01103718,20.0000281 Z M4.35603718,15.8290281 C4.27303718,15.8690281 4.19303718,15.9090281 4.11503718,15.9490281 C2.80003718,16.6160281 2.08203718,17.2520281 1.77203718,17.5720281 C1.31903718,18.0350281 1.20803718,18.3420281 1.16203718,18.5580281 C1.13403718,18.6820281 1.13003718,18.7820281 1.13203718,18.8540281 C1.50603718,18.7820281 1.92103718,18.5410281 2.39903718,18.1160281 C2.83403718,17.7280281 3.49503718,17.0340281 4.35603718,15.8290281 L4.35603718,15.8290281 L4.35603718,15.8290281 Z M13.9990372,13.4000281 C14.0900372,13.4990281 14.1810372,13.5950281 14.2710372,13.6880281 C14.9650372,14.4100281 15.5380372,14.9250281 16.1280372,15.3580281 C16.6820372,15.7690281 17.1490372,16.0340281 17.5180372,16.1480281 C17.8200372,16.2430281 18.0850372,16.2430281 18.3560372,16.1520281 C18.5930372,16.0750281 18.7430372,15.9620281 18.8080372,15.8160281 C18.8820372,15.6510281 18.9010372,15.3550281 18.7750372,15.0620281 C18.6520372,14.7760281 18.3820372,14.4810281 18.0350372,14.2550281 C17.7050372,14.0390281 17.3100372,13.8820281 16.7520372,13.7430281 C16.1870372,13.5970281 15.5680372,13.4940281 14.9580372,13.4410281 C14.6430372,13.4150281 14.3220372,13.4010281 13.9990372,13.4000281 L13.9990372,13.4000281 L13.9990372,13.4000281 Z M9.27203718,9.03802811 C8.64303718,10.7240281 7.85003718,12.2890281 7.15303718,13.5220281 C7.28603718,13.4790281 7.41803718,13.4380281 7.55203718,13.3970281 C8.80203718,13.0120281 9.76103718,12.8110281 10.6100372,12.6510281 C10.9420372,12.5880281 11.3010372,12.5230281 11.6750372,12.4650281 C11.3980372,12.1260281 11.1310372,11.7900281 10.8880372,11.4690281 C10.2560372,10.6330281 9.70703718,9.80402811 9.27203718,9.03802811 L9.27203718,9.03802811 L9.27203718,9.03802811 Z M9.45503718,1.12402811 L9.33503718,1.15602811 C9.27703718,1.16302811 9.25503718,1.16502811 9.20403718,1.18502811 C9.09703718,1.22802811 9.01803718,1.28802811 8.96703718,1.36802811 C8.87703718,1.50802811 8.80503718,1.77602811 8.75503718,2.16602811 C8.69003718,2.67802811 8.68003718,3.20002811 8.72803718,3.72002811 C8.78003718,4.27902811 8.90903718,4.94502811 9.11103718,5.69902811 C9.42103718,4.43102811 9.61203718,3.28502811 9.69303718,2.49402811 L9.73603718,2.09102811 C9.76903718,1.78602811 9.80303718,1.47202811 9.79803718,1.32302811 C9.69903718,1.25902811 9.52303718,1.14702811 9.45503718,1.12402811 L9.45503718,1.12402811 L9.45503718,1.12402811 Z" id="Acrobat"></path>
        </g>
    </g>
</svg>