<?xml version="1.0" encoding="UTF-8" standalone="no"?>
<svg width="60px" height="33px" viewBox="0 0 60 33" version="1.1" xmlns="http://www.w3.org/2000/svg" xmlns:xlink="http://www.w3.org/1999/xlink">
    <!-- Generator: Sketch 41.2 (35397) - http://www.bohemiancoding.com/sketch -->
    <title>eye</title>
    <desc>Created with Sketch.</desc>
    <defs></defs>
    <g id="Page-1" stroke="none" stroke-width="1" fill="none" fill-rule="evenodd">
        <g id="eye" fill="#087DB5">
            <g id="New_Symbol_6">
                <path d="M59.508,15.753 C53.097,5.889 42.042,0 29.94,0 C17.838,0 6.786,5.889 0.372,15.753 L0,16.326 L0.372,16.899 C6.786,26.763 17.838,32.652 29.94,32.652 C42.042,32.652 53.094,26.769 59.508,16.899 L59.88,16.326 L59.508,15.753 Z M21.678,16.449 C21.678,11.8876803 25.3756803,8.19 29.937,8.19 C34.4983197,8.19 38.196,11.8876803 38.196,16.449 C38.196,21.0103197 34.4983197,24.708 29.937,24.708 C25.3777364,24.7030398 21.6829602,21.0082636 21.678,16.449 L21.678,16.449 Z M2.511,16.323 C7.953,8.334 16.701,3.246 26.481,2.271 C20.2114378,3.80151029 15.6919133,9.26867321 15.3679406,15.7142076 C15.0439678,22.1597419 18.9925054,28.0525361 25.077,30.204 C15.87,28.905 7.692,23.931 2.514,16.326 L2.511,16.323 Z M34.8,30.204 C40.8844946,28.0525361 44.8330322,22.1597419 44.5090594,15.7142076 C44.1850867,9.26867321 39.6655622,3.80151029 33.396,2.271 C43.176,3.246 51.924,8.331 57.366,16.323 C52.188,23.931 44.01,28.905 34.8,30.207 L34.8,30.204 Z" id="Shape"></path>
            </g>
        </g>
    </g>
</svg>