<?xml version="1.0" encoding="UTF-8" standalone="no"?>
<svg width="73px" height="73px" viewBox="0 0 73 73" version="1.1" xmlns="http://www.w3.org/2000/svg" xmlns:xlink="http://www.w3.org/1999/xlink">
	<g stroke="none" stroke-width="1" fill="none" fill-rule="evenodd">
		<path d="M59.9526809,72.1854 C59.4346809,72.1854 58.9256809,72.0414 58.4846809,71.7684 L36.6686809,58.2964 L14.8546809,71.7674 C13.8856809,72.3624 12.5846809,72.2954 11.6896809,71.6114 C10.7806809,70.9244 10.3786809,69.7164 10.6976809,68.6114 L17.7866809,44.1264 L1.76868094,26.9714 C1.00268094,26.1754 0.784680937,24.9844 1.22568094,23.9504 C1.66268094,22.9194 2.67268094,22.2504 3.79768094,22.2504 L25.2616809,22.2504 L34.1136809,2.5144 C34.5506809,1.5094 35.5566809,0.8504 36.6686809,0.8504 C37.7806809,0.8504 38.7866809,1.5094 39.2306809,2.5284 L48.0746809,22.2504 L69.5396809,22.2504 C70.6636809,22.2504 71.6736809,22.9194 72.1126809,23.9534 C72.5516809,24.9844 72.3346809,26.1754 71.5546809,26.9864 L55.5496809,44.1264 L62.6386809,68.6104 C62.9576809,69.7164 62.5566809,70.9244 61.6416809,71.6174 C61.1646809,71.9824 60.5626809,72.1854 59.9526809,72.1854 L59.9526809,72.1854 Z" fill="#FFDA00"></path>
	</g>
</svg>