<svg width="14px" height="16px" viewBox="0 0 14 16" version="1.1" xmlns="http://www.w3.org/2000/svg" xmlns:xlink="http://www.w3.org/1999/xlink">
    <!-- Generator: Sketch 46.2 (44496) - http://www.bohemiancoding.com/sketch -->
    <g id="Illustrated-Cards" stroke="none" stroke-width="1" fill="none" fill-rule="evenodd">
        <g id="Mobile-Start-Screen" transform="translate(-30.000000, -845.000000)" fill-rule="nonzero" fill="#4D4D4D">
            <g id="noun_1122873_cc" transform="translate(30.000000, 845.000000)">
                <g id="Group">
                    <polygon id="Shape" points="9.75820896 9.91578947 6.20597015 9.91578947 6.20597015 5.41052632 7.45970149 5.41052632 7.45970149 8.65263158 9.75820896 8.65263158"></polygon>
                    <rect id="Rectangle-path" x="5.72537313" y="0.168421053" width="2.19402985" height="1.26315789"></rect>
                    <rect id="Rectangle-path" transform="translate(12.726053, 3.396900) rotate(-45.000000) translate(-12.726053, -3.396900) " x="12.0991936" y="2.37585716" width="1.25371932" height="2.04208568"></rect>
                    <path d="M6.83283582,15.8315789 C3.15522388,15.8315789 0.146268657,12.8 0.146268657,9.09473684 C0.146268657,5.38947368 3.15522388,2.35789474 6.83283582,2.35789474 C10.5104478,2.35789474 13.519403,5.38947368 13.519403,9.09473684 C13.519403,12.8 10.5104478,15.8315789 6.83283582,15.8315789 Z M6.83283582,3.62105263 C3.84477612,3.62105263 1.4,6.08421053 1.4,9.09473684 C1.4,12.1052632 3.84477612,14.5684211 6.83283582,14.5684211 C9.82089552,14.5684211 12.2656716,12.1052632 12.2656716,9.09473684 C12.2656716,6.08421053 9.82089552,3.62105263 6.83283582,3.62105263 Z" id="Shape"></path>
                </g>
            </g>
        </g>
    </g>
</svg>